<?xml version="1.0" encoding="UTF-8"?>
<svg id="Layer_1" data-name="Layer 1" xmlns="http://www.w3.org/2000/svg" viewBox="0 0 100 100">
  <path d="m87.56,18.16c-16.48.5-29.11,3.27-37.56,8.23-8.45-4.96-21.08-7.73-37.56-8.23l-1.55-.05v58.51l1.45.04c13.85.42,24.9,2.48,32.85,6.12,1.52.7,3.16,1.05,4.8,1.05s3.28-.35,4.81-1.05c7.95-3.64,19-5.69,32.85-6.12l1.45-.04V18.12l-1.55.05Zm-7.72,9.73v39.93c-11.27.91-20.05,3.24-25.2,4.93v-38.31c4.4-2.49,11.31-5.33,25.2-6.55Zm-34.47,6.55v38.3c-5.16-1.69-13.94-4.02-25.2-4.93V27.89c13.87,1.21,20.79,4.06,25.2,6.55Z"/>
</svg>