<?xml version="1.0" encoding="UTF-8"?>
<svg id="Layer_1" data-name="Layer 1" xmlns="http://www.w3.org/2000/svg" viewBox="0 0 100 56">
  <path d="m54.35,50.22c-5.19,0-6.23-6.99-7.81-17.57-.37-2.51-.9-6.05-1.48-8.73-.16.46-.31.91-.44,1.29-1.32,3.99-2.97,8.96-7.67,8.96-5.04,0-6.31-6.25-7.78-13.5-.19-.94-.43-2.1-.69-3.25-.43,2.33-.83,4.96-1.12,6.93-1.58,10.56-2.62,17.54-7.81,17.54h-8.5v-7h7.14c.86-2.25,1.71-7.98,2.25-11.57,1.58-10.56,2.62-17.54,7.81-17.54s6.31,6.25,7.78,13.5c.33,1.62.79,3.89,1.28,5.69.25-.69.48-1.39.67-1.95,1.32-3.99,2.97-8.96,7.67-8.96,5.19,0,6.23,6.99,7.81,17.57.2,1.35.45,3,.72,4.66.4-2.72.75-5.68,1.04-8.11,1.69-14.13,2.54-21.22,7.82-21.22s6.23,7.01,7.81,17.62c.38,2.53.91,6.1,1.49,8.8.16-.45.3-.89.43-1.27,1.33-3.96,2.97-8.89,7.67-8.89h8.5v7h-7.9c-.54.83-1.21,2.85-1.63,4.11-1.33,3.96-2.97,8.89-7.67,8.89-5.19,0-6.23-7.01-7.81-17.62-.2-1.36-.45-3.02-.72-4.68-.39,2.71-.75,5.66-1.04,8.08-1.7,14.13-2.54,21.22-7.83,21.22Z"/>
</svg>