<?xml version="1.0" encoding="UTF-8"?>
<svg id="Layer_1" data-name="Layer 1" xmlns="http://www.w3.org/2000/svg" viewBox="0 0 100 100">
  <path d="m94.24,31.84c-4.59,5.4-6.29,13.93-7.34,19.14-2.57,12.89-4.8,24.02-12.9,24.02s-10.33-11.13-12.9-24.02c-.78-3.87-1.92-9.56-3.1-13.22-1.18,3.66-2.32,9.35-3.1,13.22-2.57,12.89-4.8,24.02-12.9,24.02s-10.33-11.13-12.9-24.02c-.78-3.87-1.92-9.56-3.1-13.22-1.18,3.66-2.32,9.35-3.1,13.22-1.8,9.03-3.44,17.2-10.04,24.28l-7.1-7.1c4.59-5.4,6.29-13.93,7.34-19.14,2.57-12.89,4.8-24.02,12.9-24.02s10.33,11.13,12.9,24.02c.78,3.87,1.92,9.56,3.1,13.22,1.18-3.66,2.32-9.35,3.1-13.22,2.57-12.89,4.8-24.02,12.9-24.02s10.33,11.13,12.9,24.02c.78,3.87,1.92,9.56,3.1,13.22,1.18-3.66,2.32-9.35,3.1-13.22,1.8-9.03,3.44-17.2,10.04-24.28l7.1,7.1Z"/>
</svg>