<?xml version="1.0" encoding="UTF-8"?>
<svg id="Layer_1" data-name="Layer 1" xmlns="http://www.w3.org/2000/svg" viewBox="0 0 100 56">
  <path d="m60.66,42.42c-7.77,0-11.34-6.99-14.21-12.6-2.62-5.13-4.4-8.24-7.09-8.24s-4.47,3.11-7.09,8.24c-2.87,5.61-6.44,12.6-14.21,12.6h-4v-8h4c2.68,0,4.47-3.11,7.09-8.24,2.87-5.61,6.44-12.6,14.21-12.6s11.34,6.99,14.21,12.6c2.62,5.13,4.4,8.24,7.09,8.24s4.46-3.11,7.08-8.24c2.87-5.61,6.43-12.6,14.2-12.6h4v8h-4c-2.68,0-4.46,3.11-7.08,8.24-2.87,5.61-6.43,12.6-14.2,12.6Z"/>
</svg>