<?xml version="1.0" encoding="UTF-8"?>
<svg id="Layer_1" data-name="Layer 1" xmlns="http://www.w3.org/2000/svg" viewBox="0 0 100 100">
  <path d="m20,35h-6v-6h6c10.47,0,16.44,3.66,20.47,8.56-1.23,1.96-2.26,3.94-3.16,5.82-3.26-4.93-7.9-8.38-17.3-8.38Zm48,30c-9.25,0-13.81-3.44-17.04-8.36-.91,1.88-1.94,3.85-3.18,5.81,3.98,4.89,9.87,8.55,20.22,8.55v9l18-12-18-12v9Zm0-30v9l18-12-18-12v9c-17.5,0-22.31,10.45-26.55,19.67-4.03,8.76-7.51,16.33-21.45,16.33h-6v6h6c17.78,0,22.63-10.53,26.9-19.83,3.99-8.68,7.44-16.17,21.1-16.17Z"/>
</svg>